<?xml version="1.0" encoding="UTF-8" standalone="no"?>
<svg
   id="SVGDoc"
   width="24"
   height="13"
   version="1.1"
   viewBox="0 0 24 13"
   sodipodi:docname="vk.svg"
   inkscape:version="1.2.2 (732a01da63, 2022-12-09)"
   xmlns:inkscape="http://www.inkscape.org/namespaces/inkscape"
   xmlns:sodipodi="http://sodipodi.sourceforge.net/DTD/sodipodi-0.dtd"
   xmlns="http://www.w3.org/2000/svg"
   xmlns:svg="http://www.w3.org/2000/svg">
  <sodipodi:namedview
     id="namedview153"
     pagecolor="#ffffff"
     bordercolor="#000000"
     borderopacity="0.25"
     inkscape:showpageshadow="2"
     inkscape:pageopacity="0.0"
     inkscape:pagecheckerboard="0"
     inkscape:deskcolor="#d1d1d1"
     showgrid="false"
     inkscape:zoom="40.384615"
     inkscape:cx="12.021905"
     inkscape:cy="6.512381"
     inkscape:window-width="1366"
     inkscape:window-height="705"
     inkscape:window-x="-8"
     inkscape:window-y="-8"
     inkscape:window-maximized="1"
     inkscape:current-layer="SVGDoc" />
  <defs
     id="defs140" />
  <desc
     id="desc142">Generated with Avocode.</desc>
  <g
     id="g150">
    <g
       id="g148">
      <title
         id="title144">Vector</title>
      <path
         d="m 23.43496,0.90272 c 0.17805,-0.50935 0,-0.87928 -0.78745,-0.87928 h -2.6185 c -0.66051,0 -0.9655,0.32394 -1.14355,0.67073 0,0 -1.34697,2.96089 -3.228,4.88082 -0.60997,0.55504 -0.88949,0.74015 -1.21994,0.74015 -0.17805,0 -0.40703,-0.18511 -0.40703,-0.69357 V 0.87869 c 0,-0.60131 -0.20304,-0.87898 -0.76256,-0.87898 H 9.14996 c -0.40703,0 -0.66099,0.27767 -0.66099,0.55533 0,0.57818 0.94051,0.71731 1.04198,2.33643 v 3.518 c 0,0.76329 -0.15001,0.90301 -0.48304,0.90301 -0.88949,0 -3.04995,-2.98432 -4.34599,-6.38455 C 4.44996,0.25453 4.19399,-3e-4 3.53291,-3e-4 H 0.88942 C 0.12696,-3e-4 -7e-5,0.32335 -7e-5,0.67073 c 0,0.62475 0.88949,3.77045 4.14305,7.93397 2.16045,2.84371 5.23596,4.37206 8.00648,4.37206 1.67799,0 1.88103,-0.34708 1.88103,-0.92526 V 9.90018 c 0,-0.69387 0.15249,-0.80927 0.68645,-0.80927 0.38099,0 1.06754,0.18452 2.61803,1.54942 1.77898,1.61913 2.08397,2.35957 3.0755,2.35957 h 2.61803 c 0.76246,0 1.11847,-0.34708 0.91496,-1.01781 -0.2285,-0.67103 -1.09301,-1.64227 -2.21148,-2.79862 -0.60997,-0.6473 -1.52502,-1.3646 -1.80454,-1.71168 -0.38099,-0.46278 -0.27943,-0.64789 0,-1.06409 -0.02546,0 3.17755,-4.11753 3.50752,-5.50676"
         fill="#7e39d7"
         fill-opacity="1"
         id="path146"
         style="display:inline;fill:#ffffff;fill-opacity:1"
         inkscape:label="path146" />
    </g>
  </g>
</svg>
